<svg width="75" height="42" viewBox="0 0 75 42" fill="none" xmlns="http://www.w3.org/2000/svg">
<path d="M52.8416 12.3402V7.25916L47.7605 12.3402L45.5079 9.88439L46.016 9.51178C46.6645 9.03789 47.2359 8.46657 47.7097 7.81808C48.2653 7.06027 48.5729 6.14924 48.5905 5.20979C48.5743 4.53392 48.4202 3.86847 48.1376 3.25429C47.855 2.64011 47.4499 2.09014 46.9472 1.63814C46.4444 1.18614 45.8546 0.841629 45.2139 0.625753C44.5733 0.409878 43.8952 0.327189 43.2214 0.38276C42.4112 0.377578 41.6096 0.549164 40.8724 0.885558C40.1353 1.22195 39.4804 1.71506 38.9533 2.33051C38.2909 3.1881 37.9387 4.24484 37.9541 5.32835C38.0761 6.8635 38.7715 8.29648 39.9018 9.34241L40.0881 9.56259C39.1694 10.0611 38.3988 10.7936 37.8545 11.6859C37.3102 12.5783 37.0114 13.5987 36.9886 14.6437C37.0294 15.3597 37.2123 16.0605 37.5267 16.7051C37.8412 17.3497 38.2808 17.9253 38.8199 18.3982C39.3591 18.8712 39.987 19.2321 40.6671 19.4598C41.3472 19.6876 42.0658 19.7776 42.7811 19.7248C43.6916 19.7102 44.5899 19.5122 45.4221 19.1426C46.2544 18.773 47.0036 18.2395 47.6251 17.5738L49.2341 19.2675H54.5015L50.2672 14.813L52.8416 12.3402ZM44.6441 15.5583C44.162 15.9444 43.5679 16.1643 42.9505 16.1849C42.706 16.194 42.4623 16.154 42.2336 16.0672C42.0049 15.9804 41.7959 15.8486 41.6191 15.6796C41.4422 15.5107 41.301 15.3079 41.2039 15.0834C41.1067 14.859 41.0556 14.6173 41.0535 14.3727C41.056 13.9019 41.2104 13.4445 41.4939 13.0685C41.7568 12.7235 42.0709 12.4208 42.4254 12.1709L45.1692 15.1179L44.7288 15.5244C44.7288 15.5244 44.678 15.5244 44.6441 15.5583ZM43.2723 3.7024C43.47 3.69558 43.6671 3.72865 43.8518 3.79964C44.0364 3.87063 44.2049 3.97809 44.3472 4.1156C44.4894 4.25312 44.6026 4.41787 44.6798 4.60004C44.757 4.78221 44.7967 4.97806 44.7966 5.17592C44.792 5.44067 44.7283 5.70106 44.6103 5.93808C44.4131 6.30657 44.128 6.62071 43.7804 6.85268L43.1198 7.4116L42.7303 7.00511C42.2272 6.5725 41.9015 5.96937 41.8157 5.31141C41.8043 5.02429 41.8811 4.74056 42.0359 4.49844C42.1528 4.26801 42.329 4.07283 42.5462 3.93294C42.7635 3.79305 43.0141 3.71349 43.2723 3.7024Z" fill="black"/>
<path d="M57.3978 19.3861H64.1726C66.0973 19.4285 67.9945 18.9234 69.6432 17.9295C70.9208 17.0713 71.9533 15.8955 72.6392 14.5177C73.3251 13.1399 73.641 11.6075 73.5557 10.0707C73.6411 8.82172 73.4577 7.56891 73.0178 6.39679C72.5779 5.22468 71.8918 4.16051 71.0058 3.27606C70.1197 2.39161 69.0543 1.70745 67.8814 1.2697C66.7085 0.831953 65.4553 0.650807 64.2065 0.738478H57.4317V19.3691L57.3978 19.3861ZM61.6829 4.82028H63.9863C64.6837 4.76578 65.3844 4.86622 66.0384 5.11439C66.6924 5.36257 67.2834 5.75234 67.769 6.25577C68.2546 6.7592 68.6229 7.36383 68.8473 8.02631C69.0718 8.6888 69.147 9.39273 69.0674 10.0877C69.1474 10.7819 69.0724 11.4853 68.8478 12.147C68.6233 12.8088 68.2547 13.4125 67.7687 13.9147C67.2827 14.4169 66.6914 14.8051 66.0374 15.0512C65.3833 15.2973 64.6828 15.3953 63.9863 15.3381H61.6829V4.82028Z" fill="black"/>
<path d="M74.2332 41.4718L67.306 22.8412H62.4112L55.3993 41.4718H59.9215L61.2425 37.7288H68.2375L69.5586 41.4718H74.2332ZM66.8656 33.7994H62.6652L64.7824 27.8206L66.8656 33.7994Z" fill="black"/>
<path d="M44.7966 26.4826C45.4851 26.4439 46.1733 26.5643 46.8077 26.8345C47.4422 27.1047 48.0059 27.5175 48.455 28.0408C48.764 28.4289 49.0098 28.8633 49.1832 29.328L49.3357 29.7176L53.4514 28.278L53.3159 27.8715C53.1078 27.2788 52.8351 26.7108 52.5029 26.1778C51.6243 24.967 50.4626 23.9897 49.1193 23.3313C47.7759 22.6729 46.2918 22.3535 44.7966 22.4008C43.5145 22.3753 42.2405 22.6096 41.0513 23.0896C39.8622 23.5696 38.7825 24.2853 37.8773 25.1937C36.9721 26.102 36.2602 27.1842 35.7843 28.375C35.3085 29.5658 35.0787 30.8406 35.1086 32.1226C35.0505 33.3888 35.2527 34.6535 35.7029 35.8383C36.1531 37.0232 36.8417 38.1031 37.7259 39.0112C38.6102 39.9193 39.6714 40.6363 40.8439 41.1178C42.0164 41.5993 43.2752 41.8351 44.5425 41.8106C45.494 41.8614 46.4448 41.6976 47.3243 41.3311C48.2039 40.9646 48.9897 40.4049 49.6236 39.6935L49.8607 41.3872H53.3667V31.4282H43.8142V35.1035H49.3357C49.0027 35.99 48.3886 36.7431 47.5873 37.2478C46.786 37.7524 45.8415 37.9808 44.8982 37.8981C43.8479 37.9336 42.8114 37.6499 41.9255 37.0845C41.0396 36.5191 40.3459 35.6985 39.9357 34.7309C39.6087 33.9126 39.4475 33.0376 39.4614 32.1565C39.4048 31.4256 39.5013 30.691 39.7448 29.9996C39.9883 29.3081 40.3735 28.6751 40.8757 28.1411C41.3778 27.607 41.986 27.1837 42.6611 26.8981C43.3363 26.6125 44.0636 26.471 44.7966 26.4826Z" fill="black"/>
<path d="M34.194 13.8646C34.1958 12.8299 33.8975 11.8169 33.3354 10.9481C32.7733 10.0794 31.9714 9.39226 31.0268 8.96986C30.2948 8.60722 29.5127 8.35604 28.7065 8.22463L26.3014 7.7504C26.1347 7.72477 25.9704 7.68511 25.8103 7.63184C25.4578 7.55746 25.1419 7.36325 24.9165 7.08224C24.6911 6.80124 24.57 6.4508 24.5739 6.09058C24.6073 5.80498 24.6972 5.52889 24.8384 5.27838C24.9795 5.02786 25.1691 4.80794 25.3961 4.6314C25.6231 4.45486 25.8829 4.32524 26.1605 4.25009C26.438 4.17493 26.7277 4.15574 27.0128 4.19364C27.4501 4.19082 27.8849 4.25947 28.3 4.39688C28.6855 4.52735 29.0335 4.74973 29.3139 5.04483C29.5942 5.33992 29.7985 5.69885 29.909 6.09058L30.0276 6.49706L33.8722 5.4131L33.7876 5.04049C33.4488 3.63472 32.0939 0.365887 27.0128 0.365887C26.1697 0.306252 25.3233 0.415927 24.5233 0.688452C23.7232 0.960978 22.9859 1.39084 22.3545 1.95273C21.7232 2.51461 21.2107 3.19715 20.8472 3.96015C20.4837 4.72314 20.2766 5.55117 20.238 6.39544C20.2644 7.77584 20.7962 9.09861 21.7327 10.1131C22.6691 11.1276 23.9452 11.7634 25.3191 11.9L27.8427 12.3742C29.0452 12.5944 29.7396 13.238 29.7396 14.0679C29.7453 14.3294 29.6865 14.5883 29.5683 14.8217C29.4501 15.055 29.2763 15.2557 29.0621 15.4059C28.5229 15.752 27.8901 15.9236 27.2499 15.8971C26.4203 15.9724 25.5921 15.7394 24.9235 15.2426C24.2549 14.7458 23.7927 14.0201 23.6254 13.2041V12.7637L19.6791 13.7122V14.1018C20.1025 16.727 22.3382 19.7756 27.2668 19.7756H27.504H28.0121H28.6387L29.2315 19.6401L29.8412 19.4708C30.037 19.4076 30.2292 19.3342 30.4171 19.2506C30.6134 19.1762 30.8057 19.0914 30.993 18.9965C31.1721 18.9055 31.3422 18.7977 31.5011 18.6747C31.6861 18.5782 31.8619 18.4648 32.0261 18.336C32.1785 18.2174 32.2971 18.0819 32.4326 17.9634C32.6031 17.8182 32.7617 17.6597 32.9068 17.4891C33.005 17.3747 33.0902 17.2497 33.1609 17.1165C33.3214 16.9154 33.4631 16.6999 33.5843 16.4729C33.5843 16.4729 33.5843 16.3374 33.669 16.2697C34.0334 15.5214 34.2134 14.6967 34.194 13.8646Z" fill="black"/>
<path d="M29.6041 33.9518C30.4152 33.6622 31.1504 33.1932 31.7551 32.5799C32.7226 31.5233 33.2444 30.1337 33.2117 28.7014C33.2346 27.9067 33.0913 27.116 32.7909 26.3799C32.4905 25.6438 32.0396 24.9786 31.4672 24.4269C30.8948 23.8752 30.2134 23.4492 29.4667 23.1761C28.7201 22.903 27.9246 22.789 27.1313 22.8412H19.7299V41.4718H24.0149V34.5954H25.3191V34.6971L28.5709 41.4718H33.3133L29.6041 33.9518ZM24.0149 26.5843H26.3353C27.9443 26.5843 28.8589 27.3634 28.8589 28.7352C28.8589 30.1071 27.8935 30.8862 26.3353 30.8862H24.0149V26.5843Z" fill="black"/>
<path d="M11.1427 22.8412V34.3753C11.1964 34.8028 11.1546 35.2369 11.0203 35.6463C10.8861 36.0557 10.6626 36.4302 10.3662 36.7429C10.0697 37.0555 9.70761 37.2985 9.30591 37.4544C8.90422 37.6102 8.47296 37.675 8.0432 37.6441C7.61757 37.6672 7.19205 37.5966 6.79668 37.4373C6.4013 37.278 6.0457 37.0338 5.75497 36.7221C5.46424 36.4104 5.24546 36.0387 5.11407 35.6332C4.98268 35.2276 4.94188 34.7982 4.99455 34.3753V22.8412H0.624818V34.6971C0.561589 35.6756 0.711522 36.6561 1.06426 37.571C1.417 38.4859 1.96413 39.3134 2.66787 39.9962C3.37161 40.679 4.21519 41.2009 5.14033 41.5258C6.06546 41.8508 7.05011 41.9711 8.02627 41.8783C9.06577 41.8878 10.0985 41.71 11.0749 41.3533C12.425 40.8653 13.5805 39.953 14.3683 38.7529C15.1561 37.5529 15.5338 36.1298 15.4447 34.6971V22.8412H11.1427Z" fill="black"/>
<path d="M11.2106 1.41592C9.97307 0.967346 8.66529 0.743646 7.349 0.755383H0.574219V19.386H7.349C8.59842 19.4757 9.85254 19.2967 11.027 18.8613C12.2015 18.4258 13.2691 17.7438 14.1581 16.8613C15.047 15.9788 15.7367 14.9161 16.1807 13.7448C16.6247 12.5735 16.8127 11.3207 16.7321 10.0707C16.8531 8.22819 16.3828 6.39515 15.3897 4.83847C14.3966 3.28179 12.9325 2.08275 11.2106 1.41592ZM12.2268 10.0876C12.3068 10.7819 12.2319 11.4852 12.0073 12.147C11.7827 12.8088 11.4142 13.4125 10.9282 13.9147C10.4422 14.4169 9.85087 14.805 9.19682 15.0512C8.54276 15.2973 7.84225 15.3953 7.14576 15.3381H4.89314V4.82025H7.19657C8.24611 4.79314 9.28117 5.06955 10.1775 5.61629C10.8697 6.12715 11.4208 6.8054 11.7793 7.58746C12.1377 8.36953 12.2917 9.2298 12.2268 10.0876Z" fill="black"/>
</svg>
