<?xml version="1.0" encoding="utf-8"?>
<!-- Generator: Adobe Illustrator 19.2.1, SVG Export Plug-In . SVG Version: 6.00 Build 0)  -->
<svg version="1.1" id="layer" xmlns="http://www.w3.org/2000/svg" xmlns:xlink="http://www.w3.org/1999/xlink" x="0px" y="0px"
	 viewBox="15 260 615 128" style="enable-background:new 0 0 652 652;" xml:space="preserve">
<path d="M20.3,381h18.8V300L76.9,381h20.8V263.4H78.9v80.9l-37.8-80.9H20.3V381z M201.8,345.3c0.3-2,0.5-4.1,0.5-6.4
	c0-5.9-1.1-11.5-3.3-16.8c-2.2-5.3-5.2-9.8-9.1-13.7c-3.9-3.9-8.4-6.9-13.6-9.2c-5.2-2.2-10.8-3.4-16.7-3.4
	c-5.9,0-11.5,1.1-16.7,3.4c-5.2,2.2-9.7,5.3-13.6,9.2c-3.9,3.9-6.9,8.4-9.1,13.7c-2.2,5.3-3.3,10.9-3.3,16.8s1.1,11.5,3.4,16.8
	c2.2,5.3,5.3,9.8,9.2,13.7c3.9,3.9,8.4,6.9,13.7,9.2c5.3,2.2,10.9,3.4,17,3.4c4.7,0,9.2-0.6,13.6-1.8c4.4-1.2,8.3-3,11.9-5.2
	c3.6-2.2,6.7-4.9,9.3-8.1c2.6-3.1,4.7-6.6,6.1-10.4h-22c-1.8,2.7-4.3,4.7-7.6,6c-3.3,1.4-7.1,2-11.3,2c-3,0-5.9-0.5-8.5-1.5
	c-2.6-1-5-2.4-7.1-4.1c-2.1-1.7-3.9-3.8-5.3-6.1c-1.4-2.3-2.3-4.8-2.8-7.5L201.8,345.3L201.8,345.3z M167.3,314.4
	c2.4,0.8,4.6,2,6.6,3.4c2,1.4,3.6,3.1,5,5c1.4,2,2.4,4,3.1,6.1h-44.7c0.7-2.1,1.7-4.2,3.1-6.1c1.4-1.9,3.1-3.6,5-5
	c2-1.4,4.1-2.5,6.6-3.4s5-1.3,7.6-1.3C162.3,313.1,164.9,313.5,167.3,314.4 M222.3,356c2.1,5.2,5.1,9.7,9,13.6
	c3.9,3.9,8.4,6.9,13.6,9.1c5.2,2.2,10.9,3.3,17.2,3.3c6.2,0,11.9-1.1,17.1-3.3c5.3-2.2,9.8-5.2,13.7-9.1c3.9-3.9,6.9-8.4,9-13.6
	s3.2-10.9,3.2-17c0-6.2-1.1-11.8-3.2-17.1c-2.1-5.2-5.1-9.7-9-13.6c-3.9-3.9-8.4-6.9-13.7-9.1c-5.3-2.2-11-3.3-17.1-3.3
	c-6.3,0-12,1.1-17.2,3.3c-5.2,2.2-9.7,5.2-13.6,9.1c-3.9,3.9-6.9,8.4-9,13.6c-2.1,5.2-3.2,10.9-3.2,17.1
	C219.1,345.1,220.2,350.8,222.3,356 M239.7,328.8c1.2-3.1,2.8-5.7,5-8c2.1-2.2,4.7-4,7.6-5.2c3-1.2,6.2-1.8,9.8-1.8
	c3.6,0,6.9,0.6,9.8,1.8c3,1.2,5.5,3,7.6,5.2c2.1,2.2,3.8,4.9,5,8c1.2,3.1,1.8,6.5,1.8,10.2c0,3.7-0.6,7.1-1.8,10.2
	c-1.2,3.1-2.8,5.7-5,8c-2.1,2.2-4.7,4-7.6,5.2c-3,1.2-6.2,1.8-9.8,1.8c-3.6,0-6.9-0.6-9.8-1.8c-3-1.2-5.5-3-7.6-5.2
	c-2.1-2.2-3.8-4.9-5-8c-1.2-3.1-1.8-6.5-1.8-10.2C237.9,335.3,238.5,331.9,239.7,328.8 M341.7,305.7c1.9-5.1,4.6-9.6,8.1-13.3
	c3.5-3.8,7.6-6.7,12.3-8.9c4.8-2.2,10-3.3,15.7-3.3c7.2,0,13.3,1.5,18.5,4.5c5.1,3,9.5,7.1,13.1,12.3l13.1-13.1
	c-5.4-6.5-11.8-11.7-19.2-15.6c-7.4-3.9-15.9-5.9-25.4-5.9c-8.3,0-16,1.6-23.1,4.7c-7.1,3.1-13.3,7.4-18.5,12.8
	c-5.2,5.4-9.3,11.7-12.2,19s-4.4,15.1-4.4,23.3s1.5,16.1,4.4,23.3c2.9,7.3,7,13.6,12.2,19c5.2,5.4,11.4,9.6,18.5,12.8
	c7.1,3.1,14.8,4.7,23.1,4.7c8.3,0,16-1.6,23.1-4.7c7.1-3.1,13.3-7.4,18.5-12.8c5.2-5.4,9.3-11.7,12.2-19c2.9-7.3,4.4-15.1,4.4-23.3
	h-19.1c0,6-1,11.6-2.9,16.8c-1.9,5.1-4.6,9.6-8.1,13.3c-3.5,3.7-7.6,6.6-12.3,8.7c-4.8,2.1-10,3.2-15.7,3.2
	c-5.7,0-10.9-1.1-15.7-3.3c-4.8-2.2-8.9-5.1-12.3-8.9c-3.5-3.8-6.2-8.2-8.1-13.3c-1.9-5.1-2.8-10.6-2.8-16.5
	C338.8,316.4,339.8,310.9,341.7,305.7 M450.3,356c2.1,5.2,5.1,9.7,9,13.6c3.9,3.9,8.4,6.9,13.6,9.1c5.2,2.2,11,3.3,17.2,3.3
	c6.2,0,11.9-1.1,17.1-3.3c5.3-2.2,9.8-5.2,13.7-9.1c3.9-3.9,6.9-8.4,9-13.6c2.1-5.2,3.2-10.9,3.2-17c0-6.2-1.1-11.8-3.2-17.1
	c-2.1-5.2-5.1-9.7-9-13.6c-3.9-3.9-8.4-6.9-13.7-9.1c-5.3-2.2-11-3.3-17.1-3.3c-6.3,0-12,1.1-17.2,3.3c-5.2,2.2-9.7,5.2-13.6,9.1
	c-3.9,3.9-6.9,8.4-9,13.6c-2.1,5.2-3.2,10.9-3.2,17.1C447.2,345.1,448.2,350.8,450.3,356 M467.7,328.8c1.2-3.1,2.8-5.7,5-8
	c2.1-2.2,4.7-4,7.6-5.2c3-1.2,6.2-1.8,9.8-1.8c3.6,0,6.9,0.6,9.8,1.8c3,1.2,5.5,3,7.6,5.2c2.1,2.2,3.8,4.9,5,8
	c1.2,3.1,1.8,6.5,1.8,10.2c0,3.7-0.6,7.1-1.8,10.2c-1.2,3.1-2.8,5.7-5,8c-2.1,2.2-4.7,4-7.6,5.2c-3,1.2-6.2,1.8-9.8,1.8
	c-3.6,0-6.9-0.6-9.8-1.8c-3-1.2-5.5-3-7.6-5.2c-2.1-2.2-3.8-4.9-5-8c-1.2-3.1-1.8-6.5-1.8-10.2C466,335.3,466.6,331.9,467.7,328.8
	 M546.5,381H565v-46.3c0-6.3,1.6-11.4,4.7-15.3c3.1-3.9,7.7-5.9,13.8-5.9c6,0,10.6,1.7,13.7,5c3.1,3.4,4.6,8.7,4.6,16.1V381h18.5
	v-50.4c0-11.2-2.7-19.8-8.2-25.7c-5.5-5.9-13.5-8.9-24-8.9c-5.8,0-10.6,1.1-14.4,3.4c-3.8,2.2-6.7,4.6-8.6,7.2V297h-18.5V381z"/>
</svg>
